<?xml version="1.0" encoding="utf-8"?>
<!-- Generator: Adobe Illustrator 20.1.0, SVG Export Plug-In . SVG Version: 6.00 Build 0)  -->
<svg version="1.1" id="レイヤー_1" xmlns="http://www.w3.org/2000/svg" xmlns:xlink="http://www.w3.org/1999/xlink" x="0px"
	 y="0px" viewBox="0 0 272 48" style="enable-background:new 0 0 272 48;" xml:space="preserve">
<g>
	<g>
		<rect x="5.8" y="1.8" width="1.8" height="45"/>
		<rect x="34.1" y="1.8" width="1.8" height="45"/>
		<path d="M33.8,1.8l-2.5,0c-2.8,3.4-4.9,7-6.2,10.8c0.3-1.7,0.2-3.5-0.2-5.2c1.1-1.9,2.5-3.9,4.3-5.7l-2.5,0
			C25.8,2.9,25,4,24.2,5.2c-0.3-0.7-0.6-1.4-1-2c0.4-0.5,0.8-0.9,1.2-1.4H20C20.4,2.2,20.7,2.6,21,3c-0.5,0.6-0.9,1.3-1.4,1.9
			c-0.5-1.2-1.3-2.2-2.1-3.1H15c1.6,1.6,2.9,3.3,3.4,5.1c-1.1,1.9-2,4-2.7,6c1-4.2-0.4-8.3-2.9-11.1h-2.4c5.7,4.6,4.9,14.2-1.5,18
			c7.3,7,7.5,19.4,1.6,27h2.2c1.8-2.3,3.1-5.9,3.5-10c0.6,1.6,1.3,3.1,2,4.5c-0.7,2-1.7,3.8-3,5.5h2.2c0.8-0.9,1.4-2.1,2-3.4
			c0.5,0.7,1,1.5,1.5,2.1c-0.3,0.5-0.6,0.8-0.9,1.3h4.3c-0.4-0.4-0.8-0.8-1.2-1.3c0.4-0.6,0.7-1.3,1-2.1c0.8,1.2,1.6,2.4,2.5,3.4H29
			c-1.2-1.2-2.7-3.1-4.2-5.6c0.4-1.3,0.6-2.7,0.7-4.1c1.4,3.6,3.3,7,5.7,9.7h2.4c-3.2-3.2-8.9-11.8-8.8-22.9
			C24.9,19.6,26.4,9.6,33.8,1.8 M20.8,20c1.7-1.4,2.9-3,3.6-4.6c-0.7,2.7-1,5.4-1.1,8.2C22.6,22.3,21.8,21,20.8,20 M21.1,17.4
			c0.5-2.2,1.3-4.6,2.4-7.1C23.5,12.8,22.7,15.3,21.1,17.4 M16.1,20.1c1.8-1.7,3-3.5,3.8-5.4c-0.4,1.5-1.6,6.2-1.2,9
			C18,22.5,17.1,21.2,16.1,20.1 M22.1,4.7c0.4,0.8,0.7,1.6,1,2.4c-1,1.8-1.9,3.8-2.5,5.7c0.4-1.9,0.4-3.9-0.1-5.6
			C20.9,6.3,21.5,5.5,22.1,4.7 M16.4,17.4c0.5-2.3,1.3-4.9,2.6-7.5C19,12.6,18.1,15.2,16.4,17.4 M15.2,14.6
			c-1.1,2.2-1.3,7.8-1.3,8.9c-0.7-1.3-1.5-2.5-2.5-3.5C13.3,18.3,14.5,16.4,15.2,14.6 M16.1,30.4c0-0.4-0.1-0.7-0.2-1.1
			c-0.3-1.7-0.4-3.5-0.4-5.4c0-0.5,0-1.2,0.1-1.8c3.5,4.8,4.5,11.2,3.3,16.9C17.7,36.5,16.7,33.6,16.1,30.4 M21.9,43.9
			c-0.6-0.8-1.2-1.7-1.7-2.6c0.4-1.4,0.7-2.8,0.8-4.3c0.6,1.5,1.2,3,2,4.4C22.6,42.2,22.3,43.1,21.9,43.9 M23.6,38.9
			c-1.9-4-3.5-9.2-3.4-15.1c0-0.5,0-1.2,0.1-1.9c1.6,2.2,2.7,4.6,3.3,7.2c0.1,0.8,0.2,1.5,0.4,2.3C24.3,34,24.2,36.5,23.6,38.9"/>
	</g>
	<g>
		<path d="M57.2,29h3v0.8h-3v3.4h-1.6v-3.4h-3V29h3v-1.7h-2.4v-6.7h2.4v-1.6h-2.8v-0.8h2.8v-1c0-0.1,0-0.7-0.1-1.1l1.7,0
			c0,0,0.1,0,0.1,0.1c0,0.1-0.1,0.2-0.1,0.3v1.7H60v0.8h-2.8v1.6h2.4v3.6c1-0.3,2-0.6,3.3-1.8c-0.3-0.4-1.6-1.7-1.9-3.7l1.7-0.8
			c0.2,0.8,0.4,2.1,1.3,3.4c1.2-1.3,1.5-2.7,1.8-3.6h-5.7v-0.8h7.9c-0.7,2.6-2.2,4.5-3.1,5.4c0.8,0.7,1.6,1.3,3.4,1.9L67.8,25
			c-1.1-0.3-2.5-0.8-3.9-1.9c-0.6,0.4-1.8,1.3-3.7,1.9l-0.6-0.8v3h-2.4V29z M55.6,21.3h-1.1v2.1h1.1V21.3z M54.5,26.4h1.1v-2.2h-1.1
			V26.4z M58.3,21.3h-1.1v2.1h1.1V21.3z M57.2,26.4h1.1v-2.2h-1.1V26.4z M63.2,25.4c0-0.4,0-0.8-0.1-1h1.8c0.1,0,0.2,0,0.2,0.1
			c0,0.1-0.1,0.3-0.2,0.3v2h2.9v0.8h-2.9v4.1h3.4v0.8h-9.1v-0.8h4v-4.1h-2.9v-0.8h2.9V25.4z"/>
		<path d="M80,20v-2.8c0-0.3-0.1-0.8-0.2-1.2l1.8,0c0.2,0,0.3,0.1,0.3,0.2c0,0.1,0,0.2-0.1,0.5V20h3.6v0.8h-3.6v5.3h4.2v0.8h-4.2
			v6.3H80v-6.3h-4.1c-0.6,3.3-3.2,5.3-5,6.4l-0.7-0.8c2-1.2,3.4-2.7,3.9-5.6h-3.9v-0.8h4c0.1-1,0.2-2.2,0.2-2.5v-2.7h-3.5V20h3.5
			v-2.6c0-0.7,0-0.9-0.2-1.4l1.9,0.1c0.1,0,0.2,0,0.2,0.2c0,0.1-0.1,0.4-0.2,0.5V20H80z M76.1,20.8v2.3c0,0.3-0.1,1.8-0.2,2.9h4
			v-5.3H76.1z"/>
		<path d="M90.2,24.5c-0.9-1-1.6-1.6-2.9-2.7l0.5-0.8c1.6,0.6,2.7,1.3,3.6,1.9L90.2,24.5z M92.2,25.7c-0.8,2.3-2.6,6.4-2.8,6.8
			c0,0.3,0,0.7-0.2,0.7c-0.1,0-0.2-0.1-0.2-0.1l-1.4-1.1c0.5-0.6,0.9-1.1,0.9-1.1c0.8-1.1,2.2-3.7,3.1-5.8L92.2,25.7z M91.1,19.5
			c-0.7-1.1-2.2-2.4-2.8-2.9l0.5-0.7c1.4,0.6,2.4,1.3,3.5,2.1L91.1,19.5z M95.2,24.3c-0.4,4.3-1.4,6.7-3.7,9l-0.7-0.5
			c2.6-3,2.6-6.8,2.6-9.7v-6.3h9.1v7.5h-3.1c0.2,4.3,2.4,6.8,4,8.3l-0.6,0.7c-3.7-2.6-5-6.3-5.3-8.9H95.2z M95.2,23.4h5.5v-5.9h-5.5
			V23.4z"/>
		<path d="M104.7,29.2c1-1,2.2-2.3,3.6-5.8l0.9,0.4c-0.3,1.3-1.1,4.3-3,7L104.7,29.2z M111,18.7c0-0.2,0-1.1,0-1.7l1.7,0.1
			c0.1,0,0.4,0,0.4,0.1c0,0.1-0.2,0.5-0.2,0.6v2.7h2.8c0.8,0,2,0,2.8-0.1v1.2c-0.7-0.1-2.1-0.1-2.8-0.1h-2.8v8.7
			c0,1.3-0.3,2.1-1.4,2.1c-1,0-2-0.3-3-0.8l0.2-1c1,0.5,1.5,0.5,1.7,0.5c0.5,0,0.6-0.4,0.6-0.8v-8.7h-2.9c-0.8,0-1.9,0.1-2.7,0.1
			v-1.2c0.8,0.1,2.6,0.1,2.7,0.1h2.9V18.7z M117.3,30.6c-0.6-2-1.5-4.6-2.9-6.7l0.9-0.6c0.7,0.8,2.1,2.6,3.8,5.8L117.3,30.6z"/>
		<path d="M122.9,31.3c1.7-0.3,5.1-0.9,4.7-8.3H124c-0.4,0-2,0.1-2.7,0.1V22c0.7,0,1.9,0.1,2.7,0.1h9.1c0.9,0,1.8-0.1,2.7-0.1v1.2
			c-0.7-0.1-2.5-0.1-2.7-0.1h-3.5c0,2.7-0.3,4.3-0.6,5c-1.3,3.3-4,3.9-5.8,4.3L122.9,31.3z M126.5,18.5c-0.8,0-2,0-2.8,0.1v-1.2
			c1,0.1,2.6,0.1,2.8,0.1h4.2c0.5,0,2.1-0.1,2.7-0.1v1.2c-0.8-0.1-2.6-0.1-2.7-0.1H126.5z"/>
		<path d="M142,22.4c0,5-1,8.1-5.1,10l-0.5-0.9c3.2-1.9,3.8-4.6,3.8-9.3v-3.1c0-0.5,0-1.6-0.1-2.1l1.8,0.2c0.1,0,0.3,0.1,0.3,0.2
			c0,0-0.2,0.5-0.2,0.5V22.4z M143.9,19.1c0-0.7,0-1.4-0.1-2l1.9,0.1c0.1,0,0.3,0,0.3,0.1c0,0.1-0.2,0.5-0.2,0.6v11.4
			c3.1-1.3,4.2-3.8,4.9-5.4l0.8,0.5c-0.6,1.8-1.8,4.8-5.1,6.8c-0.2,0.2-1.3,0.7-1.6,0.9l-1.1-1.3c0.2-1,0.2-2.9,0.2-3V19.1z"/>
		<path d="M152.4,31.2c1.6-0.4,4.5-1,7-4.4c2.1-2.8,2.7-5.9,2.9-7.5l-7.3,0.1c-0.7,0-1.7,0-2.8,0.1v-1.2c0.7,0.1,2.1,0.1,2.8,0.1
			l6.7-0.1c0.7,0,1.3,0,2-0.1l0.8,1.2c-0.1,0.4-0.2,0.6-0.3,1.2c-2.1,8.5-7,10.4-11.2,11.4L152.4,31.2z M164.6,18.7
			c-0.4-0.8-0.8-1.6-1.3-2.4l0.7-0.5c0.6,0.6,1.3,1.6,1.7,2.2L164.6,18.7z M165.5,15.3c0.7,0.6,1.3,1.3,1.8,2.1l-1,0.7
			c-0.4-0.9-0.9-1.6-1.5-2.3L165.5,15.3z"/>
		<path d="M170.4,18.8c0-0.3,0-1.1-0.1-1.8l1.8,0.1c0.2,0,0.4,0.1,0.4,0.1c0,0.1,0,0.2-0.1,0.3c-0.1,0.4-0.1,0.5-0.1,0.6v11.6
			c6.6-1.4,8.2-5.8,8.7-7.3l0.8,0.5c-1.2,3.4-2.8,6.1-7.3,8.1c-0.4,0.2-2.7,0.9-3.1,1.1l-1.2-1.2c0.1-0.3,0.1-1.1,0.1-1.6V18.8z"/>
		<path d="M195.6,31.4c-1.4-2.5-3.3-4.3-4.3-5.1c-1.6,1.9-3.2,3.5-8,5.1l-0.4-1c2-0.4,5.2-2.1,7.3-5.5c1.4-2.1,2.1-4.5,2.5-5.9
			l-5.6,0.1c-0.5,0-2.3,0.1-2.9,0.2l0-1.2c1.3,0.1,1.7,0.1,2.8,0.1l4.6-0.1c0.5,0,2.1-0.1,2.6-0.2l0.8,0.9c-0.3,0.4-0.4,0.7-0.4,0.9
			c-0.4,1-1.4,4.1-2.7,5.8c2.5,1.6,4,2.9,5.3,4.7L195.6,31.4z"/>
		<path d="M202.1,19c0-0.6,0-1.6-0.1-2.2l1.8,0.2c0.1,0,0.4,0,0.4,0.1c0,0.1-0.2,0.7-0.2,0.9v4.2c1.3,0.4,4.2,1.1,6.9,3.3l-1.4,1.7
			c-2.2-2.6-4.3-3.5-5.4-3.9v5.1c0,1.3,0,2.5,0,3.8h-2c0-1.1,0.1-3.3,0.1-3.9V19z"/>
		<path d="M226.2,21.9c-0.9,2.1-3.1,7-9.7,9.6c-0.4,0.2-2.5,0.8-3,1l-0.9-2.2c8.7-1.2,11.8-6.9,12.9-9.1L226.2,21.9z M217.8,21.5
			c-1.2-1.8-2.4-3-4.6-3.9l0.5-0.9c3.1,0.9,4.8,2.4,5.6,3L217.8,21.5z"/>
		<path d="M231.5,19.6c-0.1,0-2.1,0-2.9,0.1v-1.2c1,0.1,2.8,0.1,2.9,0.1h5.6c0.4,0,2.4,0,3.1-0.1c0,1.3-0.1,2.6-0.1,4.2v3.7
			c0,1.6,0,3.5,0,5h-1.9v-0.6h-7c-0.2,0-1.9,0-2.8,0.1v-1.2c0.7,0,2.1,0.1,2.8,0.1h7V19.6H231.5z"/>
		<path d="M243.5,24c1.1,0,3,0,4.2,0h4.8c1.3,0-0.2,0,1,0v1.3c-0.5,0,0,0-1,0h-4.8c-0.2,0-2,0-4.2,0V24z"/>
		<path d="M256.8,19c0-0.6,0-1.6-0.1-2.2l1.7,0.2c0.1,0,0.4,0,0.4,0.1c0,0.1-0.2,0.7-0.2,0.9v4.2c1.3,0.4,4.2,1.1,6.8,3.3l-1.4,1.7
			c-2.2-2.6-4.3-3.5-5.4-3.9v5.1c0,1.3,0,2.5,0,3.8h-2c0-1.1,0.1-3.3,0.1-3.9V19z"/>
	</g>
</g>
</svg>
