<?xml version="1.0" encoding="utf-8"?>
<!-- Generator: Adobe Illustrator 20.1.0, SVG Export Plug-In . SVG Version: 6.00 Build 0)  -->
<svg version="1.1" id="レイヤー_1" xmlns="http://www.w3.org/2000/svg" xmlns:xlink="http://www.w3.org/1999/xlink" x="0px"
	 y="0px" viewBox="0 0 120 25" style="enable-background:new 0 0 120 25;" xml:space="preserve">
<style type="text/css">
	.st0{fill:#231815;}
</style>
<g>
	<g>
		<path class="st0" d="M66.6,7.9h-2.5C64.1,7.9,64,8,64,8v9.8l-6.7,3.9c0,0-0.1,0.1-0.1,0.1v2.6c0,0,0,0.1,0.1,0.1c0,0,0,0,0.1,0
			c0,0,0,0,0.1,0l9.3-5.2c0,0,0.1-0.1,0.1-0.1V8C66.8,8,66.7,7.9,66.6,7.9z"/>
		<path class="st0" d="M78.4,14.8c0,0,0-0.1,0-0.1L74.9,8c0,0-0.1-0.1-0.1-0.1h-2.7c0,0-0.1,0-0.1,0.1c0,0,0,0.1,0,0.1l3.4,6.7
			c0,0,0.1,0.1,0.1,0.1h2.7C78.4,14.8,78.4,14.8,78.4,14.8z"/>
		<path class="st0" d="M88.9,9l-2.1-1.3c-0.1,0-0.1,0-0.2,0l-11,15.9c0,0,0,0.1,0,0.1c0,0,0.1,0.1,0.1,0.1h3.1c0,0,0.1,0,0.1-0.1
			L89,9.2C89,9.2,89,9.2,88.9,9C89,9.1,88.9,9.1,88.9,9z"/>
		<path class="st0" d="M88,5.9l2.3,1.4c0,0,0,0,0.1,0c0,0,0.1,0,0.1-0.1l1.4-2c0,0,0-0.1,0-0.1c0,0,0-0.1-0.1-0.1l-2.3-1.4
			c-0.1,0-0.1,0-0.2,0l-1.4,2C87.9,5.8,87.9,5.8,88,5.9C87.9,5.9,87.9,5.9,88,5.9z"/>
		<path class="st0" d="M90.3,2.5L92.5,4c0,0,0,0,0.1,0c0,0,0.1,0,0.1-0.1l1.4-2c0,0,0-0.1,0-0.1c0,0,0-0.1-0.1-0.1l-2.3-1.4
			c-0.1,0-0.1,0-0.2,0l-1.4,2C90.2,2.4,90.2,2.4,90.3,2.5C90.2,2.5,90.2,2.5,90.3,2.5z"/>
		<path class="st0" d="M102.3,15.6H90.1c-0.1,0-0.1,0.1-0.1,0.1v2.1c0,0.1,0.1,0.1,0.1,0.1h12.1c0.1,0,0.1-0.1,0.1-0.1v-2.1
			C102.4,15.6,102.3,15.6,102.3,15.6z"/>
		<path class="st0" d="M119.5,17.2l-8.9-2.3V8c0-0.1-0.1-0.1-0.1-0.1H109h-0.9h-1.2c-0.1,0-0.1,0-0.1,0.1c0,0,0,0.1,0,0.1l1.2,1.1
			V24c0,0.1,0.1,0.1,0.1,0.1h2.4c0.1,0,0.1-0.1,0.1-0.1v-6.7l8.8,2.2c0,0,0,0,0,0c0,0,0.1,0,0.1,0c0,0,0-0.1,0-0.1v-2
			C119.6,17.3,119.5,17.2,119.5,17.2z"/>
		<path class="st0" d="M58.8,13.8c0,0,0-0.1,0-0.1c0,0-0.1-0.1-0.1-0.1h-2.4V8c0-0.1-0.1-0.1-0.1-0.1h-2.5c-0.1,0-0.1,0.1-0.1,0.1
			v8.1c0,0,0,0,0,0.1c0,0,0,0,0,0c0,0,0,0,0,0c0,0,0,0,0,0c0,0,0,0,0,0c0,0,0,0,0.1,0h2.5c0,0,0.1,0,0.1,0c0,0,0,0,0,0L58.8,13.8z"
			/>
	</g>
	<g>
		<path class="st0" d="M6.6,11.2h7.3c0.1,0,0.1,0,0.1-0.1V9.5c0-0.1,0-0.1-0.1-0.1H6.6c-0.1,0-0.1,0-0.1,0.1v1.7
			C6.5,11.2,6.5,11.2,6.6,11.2z"/>
		<path class="st0" d="M38.8,7.8H44l-1.8,3.3c0,0,0,0.1,0,0.1c0,0,0.1,0.1,0.1,0.1h1.9c0,0,0.1,0,0.1,0l2.3-3.4c0,0,0-0.1,0-0.1
			c0,0,0,0,0,0V6c0-0.1,0-0.1-0.1-0.1h-7.7c-0.1,0-0.1,0-0.1,0.1v1.8C38.7,7.8,38.7,7.8,38.8,7.8z"/>
		<path class="st0" d="M47.3,12.3c0-0.1,0-0.1-0.1-0.1h-9.4c-0.1,0-0.1,0-0.1,0.1v1.8c0,0.1,0,0.1,0.1,0.1h6.9l-1.2,2.5
			c0,0,0,0.1,0,0.1c0,0,0.1,0.1,0.1,0.1h1.9c0,0,0.1,0,0.1,0l1.8-2.6c0,0,0-0.1,0-0.1c0,0,0,0,0,0V12.3z"/>
		<path class="st0" d="M19.8,22.7h-8.1v-1.2h5.5c0.1,0,0.1,0,0.1-0.1v-1.5c0-0.1,0-0.1-0.1-0.1h-5.5v-1.3h6.4c0.1,0,0.1,0,0.1-0.1
			v-1.6c0-0.1,0-0.1-0.1-0.1h-6.4v-1.9h6.7c0.1,0,0.1,0,0.1-0.1V5.9c0-0.1,0-0.1-0.1-0.1h-16c-0.1,0-0.1,0-0.1,0.1v8.8
			c0,0.1,0,0.1,0.1,0.1h6.7v1.9H4.5l0.5-1c0,0,0-0.1,0-0.1c0,0-0.1-0.1-0.1-0.1H2.5c0,0-0.1,0-0.1,0.1l-2.1,3.7c0,0,0,0.1,0,0.1
			c0,0,0.1,0.1,0.1,0.1h2.4c0,0,0.1,0,0.1-0.1l0.5-0.9h5.7v1.3H3.6c-0.1,0-0.1,0-0.1,0.1v1.5c0,0.1,0,0.1,0.1,0.1h5.5v1.2H0.9
			c-0.1,0-0.1,0-0.1,0.1v1.6c0,0.1,0,0.1,0.1,0.1h18.9c0.1,0,0.1,0,0.1-0.1v-1.6C19.9,22.8,19.9,22.7,19.8,22.7z M16.3,7.8v4.9H4.5
			V7.8H16.3z"/>
		<path class="st0" d="M36.5,21.3l-4.7,0.5v-1.4h3c0.1,0,0.1,0,0.1-0.1v-1.7c0-0.1,0-0.1-0.1-0.1h-3v-1.5H36c0.1,0,0.1,0,0.1-0.1
			V5.9c0-0.1,0-0.1-0.1-0.1H25.2c-0.1,0-0.1,0-0.1,0.1v10.9c0,0.1,0,0.1,0.1,0.1h4.1v1.5h-3.1c-0.1,0-0.1,0-0.1,0.1v1.7
			c0,0.1,0,0.1,0.1,0.1h3.1v1.7l-4.7,0.5c-0.1,0-0.1,0.1-0.1,0.1v1.8c0,0,0,0.1,0,0.1c0,0,0,0,0.1,0c0,0,0,0,0,0l11.9-1.3
			c0.1,0,0.1-0.1,0.1-0.1v-1.8C36.6,21.3,36.6,21.3,36.5,21.3C36.6,21.3,36.5,21.3,36.5,21.3z M33.9,7.9v6.8h-6.7V7.9H33.9z"/>
		<path class="st0" d="M42.4,15.4H40c-0.1,0-0.1,0-0.1,0.1v8.9c0,0.1,0,0.1,0.1,0.1h2.3c0.1,0,0.1,0,0.1-0.1v-8.9
			C42.5,15.4,42.4,15.4,42.4,15.4z"/>
		<path class="st0" d="M28.3,12.3h1.3v1.4c0,0.1,0,0.1,0.1,0.1h1.7c0.1,0,0.1,0,0.1-0.1v-1.4h1.3c0.1,0,0.1,0,0.1-0.1v-1.6
			c0-0.1,0-0.1-0.1-0.1h-1.3V9.1c0-0.1,0-0.1-0.1-0.1h-1.7c-0.1,0-0.1,0-0.1,0.1v1.4h-1.3c-0.1,0-0.1,0-0.1,0.1v1.6
			C28.2,12.3,28.2,12.3,28.3,12.3z"/>
	</g>
</g>
</svg>
